<?xml version="1.0" encoding="utf-8"?>
<!-- Generator: Adobe Illustrator 22.1.0, SVG Export Plug-In . SVG Version: 6.00 Build 0)  -->
<svg version="1.1" xmlns="http://www.w3.org/2000/svg" xmlns:xlink="http://www.w3.org/1999/xlink" x="0px" y="0px"
	 viewBox="0 0 1920 1080" enable-background="new 0 0 1920 1080" xml:space="preserve">
<g id="Layer_1" display="none">
	<g display="inline">
		<line fill="none" stroke="#FFFDF3" stroke-miterlimit="10" x1="230.5" y1="99.5" x2="230.5" y2="184.5"/>
	</g>
	<g display="inline">
		<line fill="none" stroke="#FFFDF3" stroke-miterlimit="10" x1="82.5" y1="376" x2="82.5" y2="461"/>
	</g>
	<g display="inline">
		<line fill="none" stroke="#FFFDF3" stroke-miterlimit="10" x1="300.5" y1="545" x2="300.5" y2="630"/>
	</g>
	<g display="inline">
		<line fill="none" stroke="#FFFDF3" stroke-miterlimit="10" x1="159.5" y1="820" x2="159.5" y2="905"/>
	</g>
	<g display="inline">
		<line fill="none" stroke="#FFFDF3" stroke-miterlimit="10" x1="523.5" y1="315" x2="523.5" y2="400"/>
	</g>
	<g display="inline">
		<line fill="none" stroke="#FFFDF3" stroke-miterlimit="10" x1="1783.5" y1="78" x2="1783.5" y2="163"/>
	</g>
	<g display="inline">
		<line fill="none" stroke="#FFFDF3" stroke-miterlimit="10" x1="1709.5" y1="376" x2="1709.5" y2="461"/>
	</g>
	<g display="inline">
		<line fill="none" stroke="#FFFDF3" stroke-miterlimit="10" x1="1307.5" y1="874" x2="1307.5" y2="959"/>
	</g>
	<g display="inline">
		<line fill="none" stroke="#FFFDF3" stroke-miterlimit="10" x1="1557.5" y1="809" x2="1557.5" y2="894"/>
	</g>
	<g display="inline">
		<line fill="none" stroke="#FFFDF3" stroke-miterlimit="10" x1="1794.5" y1="916" x2="1794.5" y2="1001"/>
	</g>
	<g display="inline">
		<line fill="none" stroke="#FFFDF3" stroke-miterlimit="10" x1="1475.5" y1="555" x2="1475.5" y2="640"/>
	</g>
	<g display="inline">
		<line fill="none" stroke="#FFFDF3" stroke-miterlimit="10" x1="1158.5" y1="640" x2="1158.5" y2="725"/>
	</g>
	<g display="inline">
		<line fill="none" stroke="#FFFDF3" stroke-miterlimit="10" x1="706.5" y1="625" x2="706.5" y2="710"/>
	</g>
	<g display="inline">
		<line fill="none" stroke="#FFFDF3" stroke-miterlimit="10" x1="1237.5" y1="99" x2="1237.5" y2="184"/>
	</g>
	<g display="inline">
		<line fill="none" stroke="#FFFDF3" stroke-miterlimit="10" x1="1088.5" y1="376" x2="1088.5" y2="461"/>
	</g>
	<g display="inline">
		<line fill="none" stroke="#FFFDF3" stroke-miterlimit="10" x1="852.5" y1="142" x2="852.5" y2="227"/>
	</g>
	<g display="inline">
		<line fill="none" stroke="#FFFDF3" stroke-miterlimit="10" x1="887.5" y1="916" x2="887.5" y2="1001"/>
	</g>
	<g display="inline">
		<line fill="none" stroke="#FFFDF3" stroke-miterlimit="10" x1="417.5" y1="894" x2="417.5" y2="979"/>
	</g>
</g>
<g id="Layer_2">
	
		<line fill-rule="evenodd" clip-rule="evenodd" fill="none" stroke="#FFFDF3" stroke-miterlimit="10" x1="1516.5" y1="184.5" x2="1516.5" y2="233.5"/>
	
		<line fill-rule="evenodd" clip-rule="evenodd" fill="none" stroke="#FFFDF3" stroke-miterlimit="10" x1="1702.5" y1="50" x2="1702.5" y2="99"/>
	
		<line fill-rule="evenodd" clip-rule="evenodd" fill="none" stroke="#FFFDF3" stroke-miterlimit="10" x1="1634.5" y1="276" x2="1634.5" y2="325"/>
	
		<line fill-rule="evenodd" clip-rule="evenodd" fill="none" stroke="#FFFDF3" stroke-miterlimit="10" x1="1838.5" y1="301" x2="1838.5" y2="350"/>
	
		<line fill-rule="evenodd" clip-rule="evenodd" fill="none" stroke="#FFFDF3" stroke-miterlimit="10" x1="1802.5" y1="634" x2="1802.5" y2="683"/>
	
		<line fill-rule="evenodd" clip-rule="evenodd" fill="none" stroke="#FFFDF3" stroke-miterlimit="10" x1="1822.5" y1="606" x2="1822.5" y2="655"/>
	
		<line fill-rule="evenodd" clip-rule="evenodd" fill="none" stroke="#FFFDF3" stroke-miterlimit="10" x1="1671.5" y1="725" x2="1671.5" y2="774"/>
	
		<line fill-rule="evenodd" clip-rule="evenodd" fill="none" stroke="#FFFDF3" stroke-miterlimit="10" x1="1484.5" y1="934" x2="1484.5" y2="983"/>
	
		<line fill-rule="evenodd" clip-rule="evenodd" fill="none" stroke="#FFFDF3" stroke-miterlimit="10" x1="1328.5" y1="643" x2="1328.5" y2="692"/>
	
		<line fill-rule="evenodd" clip-rule="evenodd" fill="none" stroke="#FFFDF3" stroke-miterlimit="10" x1="1395.5" y1="342" x2="1395.5" y2="391"/>
	
		<line fill-rule="evenodd" clip-rule="evenodd" fill="none" stroke="#FFFDF3" stroke-miterlimit="10" x1="1227.5" y1="461" x2="1227.5" y2="510"/>
	
		<line fill-rule="evenodd" clip-rule="evenodd" fill="none" stroke="#FFFDF3" stroke-miterlimit="10" x1="1072.5" y1="53" x2="1072.5" y2="102"/>
	
		<line fill-rule="evenodd" clip-rule="evenodd" fill="none" stroke="#FFFDF3" stroke-miterlimit="10" x1="1145.5" y1="234" x2="1145.5" y2="283"/>
	
		<line fill-rule="evenodd" clip-rule="evenodd" fill="none" stroke="#FFFDF3" stroke-miterlimit="10" x1="752.5" y1="234" x2="752.5" y2="283"/>
	
		<line fill-rule="evenodd" clip-rule="evenodd" fill="none" stroke="#FFFDF3" stroke-miterlimit="10" x1="952.5" y1="318" x2="952.5" y2="367"/>
	
		<line fill-rule="evenodd" clip-rule="evenodd" fill="none" stroke="#FFFDF3" stroke-miterlimit="10" x1="596.5" y1="540" x2="596.5" y2="589"/>
	
		<line fill-rule="evenodd" clip-rule="evenodd" fill="none" stroke="#FFFDF3" stroke-miterlimit="10" x1="575.5" y1="573" x2="575.5" y2="622"/>
	
		<line fill-rule="evenodd" clip-rule="evenodd" fill="none" stroke="#FFFDF3" stroke-miterlimit="10" x1="764.5" y1="418" x2="764.5" y2="467"/>
	
		<line fill-rule="evenodd" clip-rule="evenodd" fill="none" stroke="#FFFDF3" stroke-miterlimit="10" x1="1001.5" y1="717" x2="1001.5" y2="766"/>
	
		<line fill-rule="evenodd" clip-rule="evenodd" fill="none" stroke="#FFFDF3" stroke-miterlimit="10" x1="857.5" y1="573" x2="857.5" y2="622"/>
	
		<line fill-rule="evenodd" clip-rule="evenodd" fill="none" stroke="#FFFDF3" stroke-miterlimit="10" x1="646.5" y1="852" x2="646.5" y2="901"/>
	
		<line fill-rule="evenodd" clip-rule="evenodd" fill="none" stroke="#FFFDF3" stroke-miterlimit="10" x1="616.5" y1="886" x2="616.5" y2="935"/>
	
		<line fill-rule="evenodd" clip-rule="evenodd" fill="none" stroke="#FFFDF3" stroke-miterlimit="10" x1="973.5" y1="342" x2="973.5" y2="391"/>
	
		<line fill-rule="evenodd" clip-rule="evenodd" fill="none" stroke="#FFFDF3" stroke-miterlimit="10" x1="1594.5" y1="300" x2="1594.5" y2="349"/>
	
		<line fill-rule="evenodd" clip-rule="evenodd" fill="none" stroke="#FFFDF3" stroke-miterlimit="10" x1="1158.5" y1="849" x2="1158.5" y2="898"/>
	
		<line fill-rule="evenodd" clip-rule="evenodd" fill="none" stroke="#FFFDF3" stroke-miterlimit="10" x1="1072.5" y1="1001" x2="1072.5" y2="1050"/>
	
		<line fill-rule="evenodd" clip-rule="evenodd" fill="none" stroke="#FFFDF3" stroke-miterlimit="10" x1="282.5" y1="741" x2="282.5" y2="790"/>
	
		<line fill-rule="evenodd" clip-rule="evenodd" fill="none" stroke="#FFFDF3" stroke-miterlimit="10" x1="91.5" y1="910" x2="91.5" y2="959"/>
	
		<line fill-rule="evenodd" clip-rule="evenodd" fill="none" stroke="#FFFDF3" stroke-miterlimit="10" x1="253.5" y1="970" x2="253.5" y2="1019"/>
	
		<line fill-rule="evenodd" clip-rule="evenodd" fill="none" stroke="#FFFDF3" stroke-miterlimit="10" x1="1597.5" y1="500" x2="1597.5" y2="549"/>
	
		<line fill-rule="evenodd" clip-rule="evenodd" fill="none" stroke="#FFFDF3" stroke-miterlimit="10" x1="1475.5" y1="71" x2="1475.5" y2="120"/>
	
		<line fill-rule="evenodd" clip-rule="evenodd" fill="none" stroke="#FFFDF3" stroke-miterlimit="10" x1="401.5" y1="258" x2="401.5" y2="307"/>
	
		<line fill-rule="evenodd" clip-rule="evenodd" fill="none" stroke="#FFFDF3" stroke-miterlimit="10" x1="381.5" y1="227" x2="381.5" y2="276"/>
	
		<line fill-rule="evenodd" clip-rule="evenodd" fill="none" stroke="#FFFDF3" stroke-miterlimit="10" x1="474.5" y1="692" x2="474.5" y2="741"/>
	
		<line fill-rule="evenodd" clip-rule="evenodd" fill="none" stroke="#FFFDF3" stroke-miterlimit="10" x1="115.5" y1="53" x2="115.5" y2="102"/>
	
		<line fill-rule="evenodd" clip-rule="evenodd" fill="none" stroke="#FFFDF3" stroke-miterlimit="10" x1="178.5" y1="245" x2="178.5" y2="294"/>
	
		<line fill-rule="evenodd" clip-rule="evenodd" fill="none" stroke="#FFFDF3" stroke-miterlimit="10" x1="65.5" y1="625" x2="65.5" y2="674"/>
	
		<line fill-rule="evenodd" clip-rule="evenodd" fill="none" stroke="#FFFDF3" stroke-miterlimit="10" x1="206.5" y1="476" x2="206.5" y2="525"/>
	
		<line fill-rule="evenodd" clip-rule="evenodd" fill="none" stroke="#FFFDF3" stroke-miterlimit="10" x1="222.5" y1="442" x2="222.5" y2="491"/>
	
		<line fill-rule="evenodd" clip-rule="evenodd" fill="none" stroke="#FFFDF3" stroke-miterlimit="10" x1="596.5" y1="96" x2="596.5" y2="145"/>
</g>
<g id="Layer_3" display="none">
	<path display="inline" fill-rule="evenodd" clip-rule="evenodd" fill="none" stroke="#FFFDF3" stroke-miterlimit="10" d="
		M646.5,146c0-5.2,0-9.5,0-9.5S646.5,140.8,646.5,146s0,9.5,0,9.5S646.5,151.2,646.5,146z"/>
	<path display="inline" fill-rule="evenodd" clip-rule="evenodd" fill="none" stroke="#FFFDF3" stroke-miterlimit="10" d="
		M699.5,227c0-5.2,0-9.5,0-9.5S699.5,221.8,699.5,227s0,9.5,0,9.5S699.5,232.2,699.5,227z"/>
	<path display="inline" fill-rule="evenodd" clip-rule="evenodd" fill="none" stroke="#FFFDF3" stroke-miterlimit="10" d="
		M591.5,294c0-5.2,0-9.5,0-9.5S591.5,288.8,591.5,294s0,9.5,0,9.5S591.5,299.2,591.5,294z"/>
	<path display="inline" fill-rule="evenodd" clip-rule="evenodd" fill="none" stroke="#FFFDF3" stroke-miterlimit="10" d="
		M455.5,419c0-5.2,0-9.5,0-9.5S455.5,413.8,455.5,419s0,9.5,0,9.5S455.5,424.2,455.5,419z"/>
	<path display="inline" fill-rule="evenodd" clip-rule="evenodd" fill="none" stroke="#FFFDF3" stroke-miterlimit="10" d="
		M515.5,525c0-5.2,0-9.5,0-9.5S515.5,519.8,515.5,525s0,9.5,0,9.5S515.5,530.2,515.5,525z"/>
	<path display="inline" fill-rule="evenodd" clip-rule="evenodd" fill="none" stroke="#FFFDF3" stroke-miterlimit="10" d="
		M385.5,643c0-5.2,0-9.5,0-9.5S385.5,637.8,385.5,643s0,9.5,0,9.5S385.5,648.2,385.5,643z"/>
	<path display="inline" fill-rule="evenodd" clip-rule="evenodd" fill="none" stroke="#FFFDF3" stroke-miterlimit="10" d="
		M362.5,457c0-5.2,0-9.5,0-9.5S362.5,451.8,362.5,457s0,9.5,0,9.5S362.5,462.2,362.5,457z"/>
	<path display="inline" fill-rule="evenodd" clip-rule="evenodd" fill="none" stroke="#FFFDF3" stroke-miterlimit="10" d="
		M201.5,767c0-5.2,0-9.5,0-9.5S201.5,761.8,201.5,767s0,9.5,0,9.5S201.5,772.2,201.5,767z"/>
	<path display="inline" fill-rule="evenodd" clip-rule="evenodd" fill="none" stroke="#FFFDF3" stroke-miterlimit="10" d="
		M279.5,965c0-5.2,0-9.5,0-9.5S279.5,959.8,279.5,965s0,9.5,0,9.5S279.5,970.2,279.5,965z"/>
	<path display="inline" fill-rule="evenodd" clip-rule="evenodd" fill="none" stroke="#FFFDF3" stroke-miterlimit="10" d="
		M436.5,984c0-5.2,0-9.5,0-9.5S436.5,978.8,436.5,984s0,9.5,0,9.5S436.5,989.2,436.5,984z"/>
	<path display="inline" fill-rule="evenodd" clip-rule="evenodd" fill="none" stroke="#FFFDF3" stroke-miterlimit="10" d="
		M362.5,802c0-5.2,0-9.5,0-9.5S362.5,796.8,362.5,802s0,9.5,0,9.5S362.5,807.2,362.5,802z"/>
	<path display="inline" fill-rule="evenodd" clip-rule="evenodd" fill="none" stroke="#FFFDF3" stroke-miterlimit="10" d="
		M549.5,701c0-5.2,0-9.5,0-9.5S549.5,695.8,549.5,701s0,9.5,0,9.5S549.5,706.2,549.5,701z"/>
	<path display="inline" fill-rule="evenodd" clip-rule="evenodd" fill="none" stroke="#FFFDF3" stroke-miterlimit="10" d="
		M616.5,777c0-5.2,0-9.5,0-9.5S616.5,771.8,616.5,777s0,9.5,0,9.5S616.5,782.2,616.5,777z"/>
	<path display="inline" fill-rule="evenodd" clip-rule="evenodd" fill="none" stroke="#FFFDF3" stroke-miterlimit="10" d="
		M698.5,1019c0-5.2,0-9.5,0-9.5S698.5,1013.8,698.5,1019s0,9.5,0,9.5S698.5,1024.2,698.5,1019z"/>
	<path display="inline" fill-rule="evenodd" clip-rule="evenodd" fill="none" stroke="#FFFDF3" stroke-miterlimit="10" d="
		M753.5,936c0-5.2,0-9.5,0-9.5S753.5,930.8,753.5,936s0,9.5,0,9.5S753.5,941.2,753.5,936z"/>
	<path display="inline" fill-rule="evenodd" clip-rule="evenodd" fill="none" stroke="#FFFDF3" stroke-miterlimit="10" d="
		M905.5,916c0-5.2,0-9.5,0-9.5S905.5,910.8,905.5,916s0,9.5,0,9.5S905.5,921.2,905.5,916z"/>
	<path display="inline" fill-rule="evenodd" clip-rule="evenodd" fill="none" stroke="#FFFDF3" stroke-miterlimit="10" d="
		M814.5,829c0-5.2,0-9.5,0-9.5S814.5,823.8,814.5,829s0,9.5,0,9.5S814.5,834.2,814.5,829z"/>
	<path display="inline" fill-rule="evenodd" clip-rule="evenodd" fill="none" stroke="#FFFDF3" stroke-miterlimit="10" d="
		M827.5,534c0-5.2,0-9.5,0-9.5S827.5,528.8,827.5,534s0,9.5,0,9.5S827.5,539.2,827.5,534z"/>
	<path display="inline" fill-rule="evenodd" clip-rule="evenodd" fill="none" stroke="#FFFDF3" stroke-miterlimit="10" d="
		M814.5,545c0-5.2,0-9.5,0-9.5S814.5,539.8,814.5,545s0,9.5,0,9.5S814.5,550.2,814.5,545z"/>
	<path display="inline" fill-rule="evenodd" clip-rule="evenodd" fill="none" stroke="#FFFDF3" stroke-miterlimit="10" d="
		M665.5,442c0-5.2,0-9.5,0-9.5S665.5,436.8,665.5,442s0,9.5,0,9.5S665.5,447.2,665.5,442z"/>
	<path display="inline" fill-rule="evenodd" clip-rule="evenodd" fill="none" stroke="#FFFDF3" stroke-miterlimit="10" d="
		M677.5,458c0-5.2,0-9.5,0-9.5S677.5,452.8,677.5,458s0,9.5,0,9.5S677.5,463.2,677.5,458z"/>
	<path display="inline" fill-rule="evenodd" clip-rule="evenodd" fill="none" stroke="#FFFDF3" stroke-miterlimit="10" d="M881.5,96
		c0-5.2,0-9.5,0-9.5S881.5,90.8,881.5,96s0,9.5,0,9.5S881.5,101.2,881.5,96z"/>
	<path display="inline" fill-rule="evenodd" clip-rule="evenodd" fill="none" stroke="#FFFDF3" stroke-miterlimit="10" d="
		M911.5,115c0-5.2,0-9.5,0-9.5S911.5,109.8,911.5,115s0,9.5,0,9.5S911.5,120.2,911.5,115z"/>
	<path display="inline" fill-rule="evenodd" clip-rule="evenodd" fill="none" stroke="#FFFDF3" stroke-miterlimit="10" d="
		M1088.5,292c0-5.2,0-9.5,0-9.5S1088.5,286.8,1088.5,292s0,9.5,0,9.5S1088.5,297.2,1088.5,292z"/>
	<path display="inline" fill-rule="evenodd" clip-rule="evenodd" fill="none" stroke="#FFFDF3" stroke-miterlimit="10" d="
		M1189.5,84c0-5.2,0-9.5,0-9.5S1189.5,78.8,1189.5,84s0,9.5,0,9.5S1189.5,89.2,1189.5,84z"/>
	<path display="inline" fill-rule="evenodd" clip-rule="evenodd" fill="none" stroke="#FFFDF3" stroke-miterlimit="10" d="
		M1341.5,194c0-5.2,0-9.5,0-9.5S1341.5,188.8,1341.5,194s0,9.5,0,9.5S1341.5,199.2,1341.5,194z"/>
	<path display="inline" fill-rule="evenodd" clip-rule="evenodd" fill="none" stroke="#FFFDF3" stroke-miterlimit="10" d="
		M1383.5,136c0-5.2,0-9.5,0-9.5S1383.5,130.8,1383.5,136s0,9.5,0,9.5S1383.5,141.2,1383.5,136z"/>
	<path display="inline" fill-rule="evenodd" clip-rule="evenodd" fill="none" stroke="#FFFDF3" stroke-miterlimit="10" d="
		M1475.5,291c0-5.2,0-9.5,0-9.5S1475.5,285.8,1475.5,291s0,9.5,0,9.5S1475.5,296.2,1475.5,291z"/>
	<path display="inline" fill-rule="evenodd" clip-rule="evenodd" fill="none" stroke="#FFFDF3" stroke-miterlimit="10" d="
		M1273.5,334c0-5.2,0-9.5,0-9.5S1273.5,328.8,1273.5,334s0,9.5,0,9.5S1273.5,339.2,1273.5,334z"/>
	<path display="inline" fill-rule="evenodd" clip-rule="evenodd" fill="none" stroke="#FFFDF3" stroke-miterlimit="10" d="
		M1364.5,515c0-5.2,0-9.5,0-9.5S1364.5,509.8,1364.5,515s0,9.5,0,9.5S1364.5,520.2,1364.5,515z"/>
	<path display="inline" fill-rule="evenodd" clip-rule="evenodd" fill="none" stroke="#FFFDF3" stroke-miterlimit="10" d="
		M1437.5,451c0-5.2,0-9.5,0-9.5S1437.5,445.8,1437.5,451s0,9.5,0,9.5S1437.5,456.2,1437.5,451z"/>
	<path display="inline" fill-rule="evenodd" clip-rule="evenodd" fill="none" stroke="#FFFDF3" stroke-miterlimit="10" d="
		M1560.5,659c0-5.2,0-9.5,0-9.5S1560.5,653.8,1560.5,659s0,9.5,0,9.5S1560.5,664.2,1560.5,659z"/>
	<path display="inline" fill-rule="evenodd" clip-rule="evenodd" fill="none" stroke="#FFFDF3" stroke-miterlimit="10" d="
		M1583.5,683c0-5.2,0-9.5,0-9.5S1583.5,677.8,1583.5,683s0,9.5,0,9.5S1583.5,688.2,1583.5,683z"/>
	<path display="inline" fill-rule="evenodd" clip-rule="evenodd" fill="none" stroke="#FFFDF3" stroke-miterlimit="10" d="
		M1619.5,615c0-5.2,0-9.5,0-9.5S1619.5,609.8,1619.5,615s0,9.5,0,9.5S1619.5,620.2,1619.5,615z"/>
	<path display="inline" fill-rule="evenodd" clip-rule="evenodd" fill="none" stroke="#FFFDF3" stroke-miterlimit="10" d="
		M1680.5,957c0-5.2,0-9.5,0-9.5S1680.5,951.8,1680.5,957s0,9.5,0,9.5S1680.5,962.2,1680.5,957z"/>
	<path display="inline" fill-rule="evenodd" clip-rule="evenodd" fill="none" stroke="#FFFDF3" stroke-miterlimit="10" d="
		M1703.5,981c0-5.2,0-9.5,0-9.5S1703.5,975.8,1703.5,981s0,9.5,0,9.5S1703.5,986.2,1703.5,981z"/>
	<path display="inline" fill-rule="evenodd" clip-rule="evenodd" fill="none" stroke="#FFFDF3" stroke-miterlimit="10" d="
		M1638.5,876c0-5.2,0-9.5,0-9.5S1638.5,870.8,1638.5,876s0,9.5,0,9.5S1638.5,881.2,1638.5,876z"/>
	<path display="inline" fill-rule="evenodd" clip-rule="evenodd" fill="none" stroke="#FFFDF3" stroke-miterlimit="10" d="
		M1716.5,579c0-5.2,0-9.5,0-9.5S1716.5,573.8,1716.5,579s0,9.5,0,9.5S1716.5,584.2,1716.5,579z"/>
	<path display="inline" fill-rule="evenodd" clip-rule="evenodd" fill="none" stroke="#FFFDF3" stroke-miterlimit="10" d="
		M1838.5,839c0-5.2,0-9.5,0-9.5S1838.5,833.8,1838.5,839s0,9.5,0,9.5S1838.5,844.2,1838.5,839z"/>
	<path display="inline" fill-rule="evenodd" clip-rule="evenodd" fill="none" stroke="#FFFDF3" stroke-miterlimit="10" d="
		M1773.5,898c0-5.2,0-9.5,0-9.5S1773.5,892.8,1773.5,898s0,9.5,0,9.5S1773.5,903.2,1773.5,898z"/>
	<path display="inline" fill-rule="evenodd" clip-rule="evenodd" fill="none" stroke="#FFFDF3" stroke-miterlimit="10" d="
		M1533.5,907c0-5.2,0-9.5,0-9.5S1533.5,901.8,1533.5,907s0,9.5,0,9.5S1533.5,912.2,1533.5,907z"/>
	<path display="inline" fill-rule="evenodd" clip-rule="evenodd" fill="none" stroke="#FFFDF3" stroke-miterlimit="10" d="
		M1364.5,1005c0-5.2,0-9.5,0-9.5S1364.5,999.8,1364.5,1005s0,9.5,0,9.5S1364.5,1010.2,1364.5,1005z"/>
	<path display="inline" fill-rule="evenodd" clip-rule="evenodd" fill="none" stroke="#FFFDF3" stroke-miterlimit="10" d="
		M1427.5,829c0-5.2,0-9.5,0-9.5S1427.5,823.8,1427.5,829s0,9.5,0,9.5S1427.5,834.2,1427.5,829z"/>
	<path display="inline" fill-rule="evenodd" clip-rule="evenodd" fill="none" stroke="#FFFDF3" stroke-miterlimit="10" d="
		M1351.5,692c0-5.2,0-9.5,0-9.5S1351.5,686.8,1351.5,692s0,9.5,0,9.5S1351.5,697.2,1351.5,692z"/>
	<path display="inline" fill-rule="evenodd" clip-rule="evenodd" fill="none" stroke="#FFFDF3" stroke-miterlimit="10" d="
		M1238.5,787c0-5.2,0-9.5,0-9.5S1238.5,781.8,1238.5,787s0,9.5,0,9.5S1238.5,792.2,1238.5,787z"/>
	<path display="inline" fill-rule="evenodd" clip-rule="evenodd" fill="none" stroke="#FFFDF3" stroke-miterlimit="10" d="
		M1267.5,691c0-5.2,0-9.5,0-9.5S1267.5,685.8,1267.5,691s0,9.5,0,9.5S1267.5,696.2,1267.5,691z"/>
	<path display="inline" fill-rule="evenodd" clip-rule="evenodd" fill="none" stroke="#FFFDF3" stroke-miterlimit="10" d="
		M1484.5,735c0-5.2,0-9.5,0-9.5S1484.5,729.8,1484.5,735s0,9.5,0,9.5S1484.5,740.2,1484.5,735z"/>
	<path display="inline" fill-rule="evenodd" clip-rule="evenodd" fill="none" stroke="#FFFDF3" stroke-miterlimit="10" d="
		M1777.5,489c0-5.2,0-9.5,0-9.5S1777.5,483.8,1777.5,489s0,9.5,0,9.5S1777.5,494.2,1777.5,489z"/>
	<path display="inline" fill-rule="evenodd" clip-rule="evenodd" fill="none" stroke="#FFFDF3" stroke-miterlimit="10" d="
		M1619.5,340c0-5.2,0-9.5,0-9.5S1619.5,334.8,1619.5,340s0,9.5,0,9.5S1619.5,345.2,1619.5,340z"/>
	<path display="inline" fill-rule="evenodd" clip-rule="evenodd" fill="none" stroke="#FFFDF3" stroke-miterlimit="10" d="
		M1746.5,184c0-5.2,0-9.5,0-9.5S1746.5,178.8,1746.5,184s0,9.5,0,9.5S1746.5,189.2,1746.5,184z"/>
	<path display="inline" fill-rule="evenodd" clip-rule="evenodd" fill="none" stroke="#FFFDF3" stroke-miterlimit="10" d="
		M1619.5,134c0-5.2,0-9.5,0-9.5S1619.5,128.8,1619.5,134s0,9.5,0,9.5S1619.5,139.2,1619.5,134z"/>
	<path display="inline" fill-rule="evenodd" clip-rule="evenodd" fill="none" stroke="#FFFDF3" stroke-miterlimit="10" d="
		M1814.5,59c0-5.2,0-9.5,0-9.5S1814.5,53.8,1814.5,59s0,9.5,0,9.5S1814.5,64.2,1814.5,59z"/>
	<path display="inline" fill-rule="evenodd" clip-rule="evenodd" fill="none" stroke="#FFFDF3" stroke-miterlimit="10" d="
		M1796.5,325c0-5.2,0-9.5,0-9.5S1796.5,319.8,1796.5,325s0,9.5,0,9.5S1796.5,330.2,1796.5,325z"/>
	<path display="inline" fill-rule="evenodd" clip-rule="evenodd" fill="none" stroke="#FFFDF3" stroke-miterlimit="10" d="
		M1814.5,510c0-5.2,0-9.5,0-9.5S1814.5,504.8,1814.5,510s0,9.5,0,9.5S1814.5,515.2,1814.5,510z"/>
	<path display="inline" fill-rule="evenodd" clip-rule="evenodd" fill="none" stroke="#FFFDF3" stroke-miterlimit="10" d="
		M1260.5,350c0-5.2,0-9.5,0-9.5S1260.5,344.8,1260.5,350s0,9.5,0,9.5S1260.5,355.2,1260.5,350z"/>
	<path display="inline" fill-rule="evenodd" clip-rule="evenodd" fill="none" stroke="#FFFDF3" stroke-miterlimit="10" d="
		M997.5,438c0-5.2,0-9.5,0-9.5S997.5,432.8,997.5,438s0,9.5,0,9.5S997.5,443.2,997.5,438z"/>
	<path display="inline" fill-rule="evenodd" clip-rule="evenodd" fill="none" stroke="#FFFDF3" stroke-miterlimit="10" d="
		M1092.5,578c0-5.2,0-9.5,0-9.5S1092.5,572.8,1092.5,578s0,9.5,0,9.5S1092.5,583.2,1092.5,578z"/>
	<path display="inline" fill-rule="evenodd" clip-rule="evenodd" fill="none" stroke="#FFFDF3" stroke-miterlimit="10" d="
		M1081.5,589c0-5.2,0-9.5,0-9.5S1081.5,583.8,1081.5,589s0,9.5,0,9.5S1081.5,594.2,1081.5,589z"/>
	<path display="inline" fill-rule="evenodd" clip-rule="evenodd" fill="none" stroke="#FFFDF3" stroke-miterlimit="10" d="
		M955.5,655c0-5.2,0-9.5,0-9.5S955.5,649.8,955.5,655s0,9.5,0,9.5S955.5,660.2,955.5,655z"/>
	<path display="inline" fill-rule="evenodd" clip-rule="evenodd" fill="none" stroke="#FFFDF3" stroke-miterlimit="10" d="
		M1100.5,814c0-5.2,0-9.5,0-9.5S1100.5,808.8,1100.5,814s0,9.5,0,9.5S1100.5,819.2,1100.5,814z"/>
	<path display="inline" fill-rule="evenodd" clip-rule="evenodd" fill="none" stroke="#FFFDF3" stroke-miterlimit="10" d="
		M1153.5,969c0-5.2,0-9.5,0-9.5S1153.5,963.8,1153.5,969s0,9.5,0,9.5S1153.5,974.2,1153.5,969z"/>
	<path display="inline" fill-rule="evenodd" clip-rule="evenodd" fill="none" stroke="#FFFDF3" stroke-miterlimit="10" d="
		M1035.5,936c0-5.2,0-9.5,0-9.5S1035.5,930.8,1035.5,936s0,9.5,0,9.5S1035.5,941.2,1035.5,936z"/>
	<path display="inline" fill-rule="evenodd" clip-rule="evenodd" fill="none" stroke="#FFFDF3" stroke-miterlimit="10" d="
		M874.5,334c0-5.2,0-9.5,0-9.5S874.5,328.8,874.5,334s0,9.5,0,9.5S874.5,339.2,874.5,334z"/>
	<path display="inline" fill-rule="evenodd" clip-rule="evenodd" fill="none" stroke="#FFFDF3" stroke-miterlimit="10" d="
		M1024.5,213c0-5.2,0-9.5,0-9.5S1024.5,207.8,1024.5,213s0,9.5,0,9.5S1024.5,218.2,1024.5,213z"/>
	<path display="inline" fill-rule="evenodd" clip-rule="evenodd" fill="none" stroke="#FFFDF3" stroke-miterlimit="10" d="
		M804.5,814c0-5.2,0-9.5,0-9.5S804.5,808.8,804.5,814s0,9.5,0,9.5S804.5,819.2,804.5,814z"/>
	<path display="inline" fill-rule="evenodd" clip-rule="evenodd" fill="none" stroke="#FFFDF3" stroke-miterlimit="10" d="
		M173.5,633c0-5.2,0-9.5,0-9.5S173.5,627.8,173.5,633s0,9.5,0,9.5S173.5,638.2,173.5,633z"/>
	<path display="inline" fill-rule="evenodd" clip-rule="evenodd" fill="none" stroke="#FFFDF3" stroke-miterlimit="10" d="
		M159.5,646c0-5.2,0-9.5,0-9.5S159.5,640.8,159.5,646s0,9.5,0,9.5S159.5,651.2,159.5,646z"/>
	<path display="inline" fill-rule="evenodd" clip-rule="evenodd" fill="none" stroke="#FFFDF3" stroke-miterlimit="10" d="
		M108.5,805c0-5.2,0-9.5,0-9.5S108.5,799.8,108.5,805s0,9.5,0,9.5S108.5,810.2,108.5,805z"/>
	<path display="inline" fill-rule="evenodd" clip-rule="evenodd" fill="none" stroke="#FFFDF3" stroke-miterlimit="10" d="
		M137.5,236c0-5.2,0-9.5,0-9.5S137.5,230.8,137.5,236s0,9.5,0,9.5S137.5,241.2,137.5,236z"/>
	<path display="inline" fill-rule="evenodd" clip-rule="evenodd" fill="none" stroke="#FFFDF3" stroke-miterlimit="10" d="
		M125.5,258c0-5.2,0-9.5,0-9.5S125.5,252.8,125.5,258s0,9.5,0,9.5S125.5,263.2,125.5,258z"/>
	<path display="inline" fill-rule="evenodd" clip-rule="evenodd" fill="none" stroke="#FFFDF3" stroke-miterlimit="10" d="
		M100.5,467c0-5.2,0-9.5,0-9.5S100.5,461.8,100.5,467s0,9.5,0,9.5S100.5,472.2,100.5,467z"/>
	<path display="inline" fill-rule="evenodd" clip-rule="evenodd" fill="none" stroke="#FFFDF3" stroke-miterlimit="10" d="
		M238.5,357c0-5.2,0-9.5,0-9.5S238.5,351.8,238.5,357s0,9.5,0,9.5S238.5,362.2,238.5,357z"/>
	<path display="inline" fill-rule="evenodd" clip-rule="evenodd" fill="none" stroke="#FFFDF3" stroke-miterlimit="10" d="M342.5,62
		c0-5.2,0-9.5,0-9.5S342.5,56.8,342.5,62s0,9.5,0,9.5S342.5,67.2,342.5,62z"/>
	<path display="inline" fill-rule="evenodd" clip-rule="evenodd" fill="none" stroke="#FFFDF3" stroke-miterlimit="10" d="
		M506.5,169c0-5.2,0-9.5,0-9.5S506.5,163.8,506.5,169s0,9.5,0,9.5S506.5,174.2,506.5,169z"/>
	<path display="inline" fill-rule="evenodd" clip-rule="evenodd" fill="none" stroke="#FFFDF3" stroke-miterlimit="10" d="
		M312.5,142c0-5.2,0-9.5,0-9.5S312.5,136.8,312.5,142s0,9.5,0,9.5S312.5,147.2,312.5,142z"/>
	<path display="inline" fill-rule="evenodd" clip-rule="evenodd" fill="none" stroke="#FFFDF3" stroke-miterlimit="10" d="
		M252.5,194c0-5.2,0-9.5,0-9.5S252.5,188.8,252.5,194s0,9.5,0,9.5S252.5,199.2,252.5,194z"/>
	<path display="inline" fill-rule="evenodd" clip-rule="evenodd" fill="none" stroke="#FFFDF3" stroke-miterlimit="10" d="M47.5,53
		c0-5.2,0-9.5,0-9.5S47.5,47.8,47.5,53s0,9.5,0,9.5S47.5,58.2,47.5,53z"/>
</g>
</svg>
